<mxfile host="Electron" agent="Mozilla/5.0 (Windows NT 10.0; Win64; x64) AppleWebKit/537.36 (KHTML, like Gecko) draw.io/26.0.16 Chrome/132.0.6834.196 Electron/34.2.0 Safari/537.36" version="26.0.16">
  <diagram name="Page-1" id="sKs5a4nXe-1UTTSjekl7">
    <mxGraphModel dx="1806" dy="557" grid="1" gridSize="10" guides="1" tooltips="1" connect="1" arrows="1" fold="1" page="1" pageScale="1" pageWidth="850" pageHeight="1100" math="0" shadow="0">
      <root>
        <mxCell id="0" />
        <mxCell id="1" parent="0" />
        <mxCell id="Vm-noCwrMWK1309zvUUz-2" value="cliants app" style="rounded=1;whiteSpace=wrap;html=1;" vertex="1" parent="1">
          <mxGeometry x="250" y="130" width="430" height="160" as="geometry" />
        </mxCell>
        <mxCell id="Vm-noCwrMWK1309zvUUz-16" value="login and member data request or new user&amp;nbsp;" style="edgeStyle=orthogonalEdgeStyle;rounded=0;orthogonalLoop=1;jettySize=auto;html=1;entryX=0.75;entryY=0;entryDx=0;entryDy=0;" edge="1" parent="1">
          <mxGeometry x="-1" y="148" relative="1" as="geometry">
            <mxPoint x="860" y="510" as="sourcePoint" />
            <mxPoint x="977.5" y="720" as="targetPoint" />
            <Array as="points">
              <mxPoint x="960" y="510" />
              <mxPoint x="960" y="605" />
              <mxPoint x="938" y="605" />
              <mxPoint x="938" y="690" />
              <mxPoint x="978" y="690" />
            </Array>
            <mxPoint x="-70" y="18" as="offset" />
          </mxGeometry>
        </mxCell>
        <mxCell id="Vm-noCwrMWK1309zvUUz-55" style="edgeStyle=orthogonalEdgeStyle;rounded=0;orthogonalLoop=1;jettySize=auto;html=1;exitX=0.25;exitY=1;exitDx=0;exitDy=0;entryX=0.75;entryY=0;entryDx=0;entryDy=0;" edge="1" parent="1" source="Vm-noCwrMWK1309zvUUz-3" target="Vm-noCwrMWK1309zvUUz-52">
          <mxGeometry relative="1" as="geometry">
            <Array as="points">
              <mxPoint x="383" y="540" />
              <mxPoint x="230" y="540" />
            </Array>
          </mxGeometry>
        </mxCell>
        <mxCell id="Vm-noCwrMWK1309zvUUz-56" value="bord state" style="edgeLabel;html=1;align=center;verticalAlign=middle;resizable=0;points=[];" vertex="1" connectable="0" parent="Vm-noCwrMWK1309zvUUz-55">
          <mxGeometry x="0.1221" y="2" relative="1" as="geometry">
            <mxPoint as="offset" />
          </mxGeometry>
        </mxCell>
        <mxCell id="Vm-noCwrMWK1309zvUUz-3" value="gatway" style="rounded=1;whiteSpace=wrap;html=1;" vertex="1" parent="1">
          <mxGeometry x="300" y="330" width="330" height="130" as="geometry" />
        </mxCell>
        <mxCell id="Vm-noCwrMWK1309zvUUz-28" value="add new game" style="edgeStyle=orthogonalEdgeStyle;rounded=0;orthogonalLoop=1;jettySize=auto;html=1;exitX=0.75;exitY=0;exitDx=0;exitDy=0;entryX=0.75;entryY=0;entryDx=0;entryDy=0;" edge="1" parent="1" source="Vm-noCwrMWK1309zvUUz-4" target="Vm-noCwrMWK1309zvUUz-70">
          <mxGeometry relative="1" as="geometry">
            <mxPoint x="1230" y="730" as="targetPoint" />
            <Array as="points">
              <mxPoint x="478" y="630" />
              <mxPoint x="1200" y="630" />
              <mxPoint x="1200" y="690" />
              <mxPoint x="1230" y="690" />
              <mxPoint x="1230" y="850" />
            </Array>
          </mxGeometry>
        </mxCell>
        <mxCell id="Vm-noCwrMWK1309zvUUz-40" value="game state&lt;div&gt;&amp;nbsp;to useres&lt;div&gt;&lt;br&gt;&lt;/div&gt;&lt;/div&gt;" style="edgeStyle=orthogonalEdgeStyle;rounded=0;orthogonalLoop=1;jettySize=auto;html=1;exitX=0.25;exitY=0;exitDx=0;exitDy=0;entryX=0.5;entryY=1;entryDx=0;entryDy=0;" edge="1" parent="1" target="Vm-noCwrMWK1309zvUUz-3">
          <mxGeometry x="0.0551" y="-18" relative="1" as="geometry">
            <mxPoint x="472" y="510" as="targetPoint" />
            <mxPoint x="374.5" y="730" as="sourcePoint" />
            <Array as="points">
              <mxPoint x="402" y="730" />
              <mxPoint x="402" y="570" />
              <mxPoint x="472" y="570" />
              <mxPoint x="472" y="460" />
            </Array>
            <mxPoint as="offset" />
          </mxGeometry>
        </mxCell>
        <mxCell id="Vm-noCwrMWK1309zvUUz-4" value="game engine&lt;div&gt;&lt;font style=&quot;font-size: 10px;&quot;&gt;will&amp;nbsp; run the games and up date user of game sttuse as well keep track of rulls ect&amp;nbsp;&lt;/font&gt;&lt;/div&gt;" style="rounded=1;whiteSpace=wrap;html=1;" vertex="1" parent="1">
          <mxGeometry x="320" y="730" width="210" height="160" as="geometry" />
        </mxCell>
        <mxCell id="Vm-noCwrMWK1309zvUUz-42" value="plaer active statuse" style="edgeStyle=orthogonalEdgeStyle;rounded=0;orthogonalLoop=1;jettySize=auto;html=1;exitX=0.5;exitY=1;exitDx=0;exitDy=0;entryX=0.5;entryY=1;entryDx=0;entryDy=0;" edge="1" parent="1" source="Vm-noCwrMWK1309zvUUz-5" target="Vm-noCwrMWK1309zvUUz-4">
          <mxGeometry relative="1" as="geometry">
            <Array as="points">
              <mxPoint x="885" y="940" />
              <mxPoint x="425" y="940" />
            </Array>
          </mxGeometry>
        </mxCell>
        <mxCell id="Vm-noCwrMWK1309zvUUz-5" value="&lt;font style=&quot;font-size: 14px;&quot;&gt;member manger&lt;/font&gt;&lt;div&gt;will verfi if request can make chang to data as well will log player in and logg out if not goten a still in responce&lt;/div&gt;" style="rounded=1;whiteSpace=wrap;html=1;" vertex="1" parent="1">
          <mxGeometry x="820" y="720" width="210" height="160" as="geometry" />
        </mxCell>
        <mxCell id="Vm-noCwrMWK1309zvUUz-24" value="data request" style="edgeStyle=orthogonalEdgeStyle;rounded=0;orthogonalLoop=1;jettySize=auto;html=1;exitX=1;exitY=0;exitDx=0;exitDy=0;entryX=0.542;entryY=1.033;entryDx=0;entryDy=0;entryPerimeter=0;" edge="1" parent="1" source="Vm-noCwrMWK1309zvUUz-6" target="Vm-noCwrMWK1309zvUUz-68">
          <mxGeometry relative="1" as="geometry">
            <mxPoint x="780" y="800" as="targetPoint" />
            <Array as="points">
              <mxPoint x="750" y="740" />
              <mxPoint x="790" y="740" />
              <mxPoint x="790" y="720" />
              <mxPoint x="791" y="720" />
            </Array>
          </mxGeometry>
        </mxCell>
        <mxCell id="Vm-noCwrMWK1309zvUUz-77" style="edgeStyle=orthogonalEdgeStyle;rounded=0;orthogonalLoop=1;jettySize=auto;html=1;exitX=0.25;exitY=0;exitDx=0;exitDy=0;entryX=0.75;entryY=1;entryDx=0;entryDy=0;" edge="1" parent="1" source="Vm-noCwrMWK1309zvUUz-6" target="Vm-noCwrMWK1309zvUUz-57">
          <mxGeometry relative="1" as="geometry" />
        </mxCell>
        <mxCell id="Vm-noCwrMWK1309zvUUz-6" value="matchmaker&lt;div&gt;&lt;font style=&quot;font-size: 10px;&quot;&gt;will make matches of simaler elo&lt;/font&gt;&lt;/div&gt;" style="rounded=1;whiteSpace=wrap;html=1;" vertex="1" parent="1">
          <mxGeometry x="540" y="720" width="180" height="110" as="geometry" />
        </mxCell>
        <mxCell id="Vm-noCwrMWK1309zvUUz-8" value="bord anilizer&amp;nbsp;" style="rounded=1;whiteSpace=wrap;html=1;" vertex="1" parent="1">
          <mxGeometry x="90" y="730" width="210" height="160" as="geometry" />
        </mxCell>
        <mxCell id="Vm-noCwrMWK1309zvUUz-9" value="stockfish" style="rounded=1;whiteSpace=wrap;html=1;" vertex="1" parent="1">
          <mxGeometry x="-160" y="730" width="210" height="160" as="geometry" />
        </mxCell>
        <mxCell id="Vm-noCwrMWK1309zvUUz-29" value="response to user" style="edgeStyle=orthogonalEdgeStyle;rounded=0;orthogonalLoop=1;jettySize=auto;html=1;exitX=0.829;exitY=-0.027;exitDx=0;exitDy=0;entryX=1;entryY=0.5;entryDx=0;entryDy=0;exitPerimeter=0;" edge="1" parent="1" source="Vm-noCwrMWK1309zvUUz-11">
          <mxGeometry relative="1" as="geometry">
            <mxPoint x="1259" y="710" as="sourcePoint" />
            <mxPoint x="629" y="435" as="targetPoint" />
            <Array as="points">
              <mxPoint x="1444" y="440" />
              <mxPoint x="629" y="440" />
            </Array>
          </mxGeometry>
        </mxCell>
        <mxCell id="Vm-noCwrMWK1309zvUUz-45" value="updata data" style="edgeStyle=orthogonalEdgeStyle;rounded=0;orthogonalLoop=1;jettySize=auto;html=1;exitX=0.5;exitY=1;exitDx=0;exitDy=0;entryX=0.5;entryY=0;entryDx=0;entryDy=0;" edge="1" parent="1" source="Vm-noCwrMWK1309zvUUz-11" target="Vm-noCwrMWK1309zvUUz-12">
          <mxGeometry relative="1" as="geometry" />
        </mxCell>
        <mxCell id="Vm-noCwrMWK1309zvUUz-47" value="have game added&amp;nbsp;&lt;div&gt;to member&lt;/div&gt;" style="edgeStyle=orthogonalEdgeStyle;rounded=0;orthogonalLoop=1;jettySize=auto;html=1;exitX=0;exitY=0.25;exitDx=0;exitDy=0;entryX=1;entryY=0.25;entryDx=0;entryDy=0;" edge="1" parent="1">
          <mxGeometry relative="1" as="geometry">
            <mxPoint x="1269" y="760" as="sourcePoint" />
            <mxPoint x="859" y="482.5" as="targetPoint" />
            <Array as="points">
              <mxPoint x="1269" y="600" />
              <mxPoint x="1064" y="600" />
              <mxPoint x="1064" y="483" />
            </Array>
          </mxGeometry>
        </mxCell>
        <mxCell id="Vm-noCwrMWK1309zvUUz-11" value="game data manger" style="rounded=1;whiteSpace=wrap;html=1;" vertex="1" parent="1">
          <mxGeometry x="1270" y="720" width="210" height="160" as="geometry" />
        </mxCell>
        <mxCell id="Vm-noCwrMWK1309zvUUz-46" value="give data" style="edgeStyle=orthogonalEdgeStyle;rounded=0;orthogonalLoop=1;jettySize=auto;html=1;exitX=0;exitY=0;exitDx=0;exitDy=0;entryX=0.61;entryY=1.01;entryDx=0;entryDy=0;entryPerimeter=0;" edge="1" parent="1" source="Vm-noCwrMWK1309zvUUz-12" target="Vm-noCwrMWK1309zvUUz-11">
          <mxGeometry x="-0.0018" relative="1" as="geometry">
            <mxPoint x="1450" y="1040" as="targetPoint" />
            <Array as="points">
              <mxPoint x="1200" y="1080" />
              <mxPoint x="1200" y="1015" />
              <mxPoint x="1410" y="1015" />
              <mxPoint x="1410" y="882" />
            </Array>
            <mxPoint as="offset" />
          </mxGeometry>
        </mxCell>
        <mxCell id="Vm-noCwrMWK1309zvUUz-12" value="" style="rounded=1;whiteSpace=wrap;html=1;" vertex="1" parent="1">
          <mxGeometry x="1180" y="1080" width="210" height="160" as="geometry" />
        </mxCell>
        <mxCell id="Vm-noCwrMWK1309zvUUz-22" value="member data" style="edgeStyle=orthogonalEdgeStyle;rounded=0;orthogonalLoop=1;jettySize=auto;html=1;exitX=1;exitY=0;exitDx=0;exitDy=0;entryX=1;entryY=1;entryDx=0;entryDy=0;" edge="1" parent="1" source="Vm-noCwrMWK1309zvUUz-13" target="Vm-noCwrMWK1309zvUUz-5">
          <mxGeometry relative="1" as="geometry" />
        </mxCell>
        <mxCell id="Vm-noCwrMWK1309zvUUz-13" value="userdata" style="rounded=1;whiteSpace=wrap;html=1;" vertex="1" parent="1">
          <mxGeometry x="850" y="1320" width="210" height="160" as="geometry" />
        </mxCell>
        <mxCell id="Vm-noCwrMWK1309zvUUz-18" value="clients request or responce" style="edgeStyle=orthogonalEdgeStyle;rounded=0;orthogonalLoop=1;jettySize=auto;html=1;exitX=1;exitY=1;exitDx=0;exitDy=0;entryX=1.006;entryY=0.069;entryDx=0;entryDy=0;entryPerimeter=0;" edge="1" parent="1" source="Vm-noCwrMWK1309zvUUz-2" target="Vm-noCwrMWK1309zvUUz-3">
          <mxGeometry relative="1" as="geometry" />
        </mxCell>
        <mxCell id="Vm-noCwrMWK1309zvUUz-19" value="member data" style="edgeStyle=orthogonalEdgeStyle;rounded=0;orthogonalLoop=1;jettySize=auto;html=1;exitX=0.5;exitY=0;exitDx=0;exitDy=0;entryX=0.955;entryY=0.992;entryDx=0;entryDy=0;entryPerimeter=0;" edge="1" parent="1" source="Vm-noCwrMWK1309zvUUz-5" target="Vm-noCwrMWK1309zvUUz-3">
          <mxGeometry relative="1" as="geometry" />
        </mxCell>
        <mxCell id="Vm-noCwrMWK1309zvUUz-23" value="update or&amp;nbsp;&lt;div&gt;request data&lt;div&gt;&lt;br&gt;&lt;/div&gt;&lt;/div&gt;" style="edgeStyle=orthogonalEdgeStyle;rounded=0;orthogonalLoop=1;jettySize=auto;html=1;exitX=0.75;exitY=1;exitDx=0;exitDy=0;entryX=0.538;entryY=0.025;entryDx=0;entryDy=0;entryPerimeter=0;" edge="1" parent="1" source="Vm-noCwrMWK1309zvUUz-5" target="Vm-noCwrMWK1309zvUUz-13">
          <mxGeometry relative="1" as="geometry" />
        </mxCell>
        <mxCell id="Vm-noCwrMWK1309zvUUz-25" value="player ative stause" style="edgeStyle=orthogonalEdgeStyle;rounded=0;orthogonalLoop=1;jettySize=auto;html=1;exitX=0;exitY=1;exitDx=0;exitDy=0;entryX=0.971;entryY=0.95;entryDx=0;entryDy=0;entryPerimeter=0;" edge="1" parent="1">
          <mxGeometry relative="1" as="geometry">
            <mxPoint x="695.2" y="885.5" as="sourcePoint" />
            <mxPoint x="719.9800000000002" y="810" as="targetPoint" />
            <Array as="points" />
          </mxGeometry>
        </mxCell>
        <mxCell id="Vm-noCwrMWK1309zvUUz-31" value="request data" style="edgeStyle=orthogonalEdgeStyle;rounded=0;orthogonalLoop=1;jettySize=auto;html=1;exitX=0.75;exitY=1;exitDx=0;exitDy=0;" edge="1" parent="1" target="Vm-noCwrMWK1309zvUUz-70">
          <mxGeometry relative="1" as="geometry">
            <mxPoint x="246.5" y="890" as="sourcePoint" />
            <mxPoint x="1180" y="890" as="targetPoint" />
            <Array as="points">
              <mxPoint x="247" y="1030" />
              <mxPoint x="1180" y="1030" />
            </Array>
          </mxGeometry>
        </mxCell>
        <mxCell id="Vm-noCwrMWK1309zvUUz-33" value="recemeded moves&lt;div&gt;bord rating&lt;/div&gt;" style="edgeStyle=orthogonalEdgeStyle;rounded=0;orthogonalLoop=1;jettySize=auto;html=1;exitX=0.75;exitY=0;exitDx=0;exitDy=0;entryX=0.058;entryY=1.038;entryDx=0;entryDy=0;entryPerimeter=0;" edge="1" parent="1" source="Vm-noCwrMWK1309zvUUz-9" target="Vm-noCwrMWK1309zvUUz-3">
          <mxGeometry relative="1" as="geometry">
            <Array as="points">
              <mxPoint x="-2" y="615" />
              <mxPoint x="140" y="615" />
              <mxPoint x="140" y="505" />
            </Array>
          </mxGeometry>
        </mxCell>
        <mxCell id="Vm-noCwrMWK1309zvUUz-34" value="anlisise" style="edgeStyle=orthogonalEdgeStyle;rounded=0;orthogonalLoop=1;jettySize=auto;html=1;exitX=0.75;exitY=0;exitDx=0;exitDy=0;entryX=0.345;entryY=1.031;entryDx=0;entryDy=0;entryPerimeter=0;" edge="1" parent="1" source="Vm-noCwrMWK1309zvUUz-8" target="Vm-noCwrMWK1309zvUUz-3">
          <mxGeometry relative="1" as="geometry">
            <Array as="points">
              <mxPoint x="300" y="730" />
              <mxPoint x="300" y="615" />
              <mxPoint x="370" y="615" />
              <mxPoint x="370" y="560" />
              <mxPoint x="400" y="560" />
              <mxPoint x="400" y="504" />
            </Array>
          </mxGeometry>
        </mxCell>
        <mxCell id="Vm-noCwrMWK1309zvUUz-37" value="Bord state" style="edgeStyle=orthogonalEdgeStyle;rounded=0;orthogonalLoop=1;jettySize=auto;html=1;exitX=0;exitY=0.75;exitDx=0;exitDy=0;entryX=0.5;entryY=0;entryDx=0;entryDy=0;" edge="1" parent="1" target="Vm-noCwrMWK1309zvUUz-50">
          <mxGeometry relative="1" as="geometry">
            <mxPoint x="302" y="467.5" as="sourcePoint" />
            <mxPoint x="-138.04999999999995" y="732.0799999999999" as="targetPoint" />
          </mxGeometry>
        </mxCell>
        <mxCell id="Vm-noCwrMWK1309zvUUz-41" value="move" style="edgeStyle=orthogonalEdgeStyle;rounded=0;orthogonalLoop=1;jettySize=auto;html=1;exitX=0.75;exitY=1;exitDx=0;exitDy=0;entryX=0.562;entryY=-0.025;entryDx=0;entryDy=0;entryPerimeter=0;" edge="1" parent="1" source="Vm-noCwrMWK1309zvUUz-57" target="Vm-noCwrMWK1309zvUUz-4">
          <mxGeometry relative="1" as="geometry">
            <Array as="points">
              <mxPoint x="450" y="600" />
              <mxPoint x="450" y="665" />
              <mxPoint x="438" y="665" />
            </Array>
          </mxGeometry>
        </mxCell>
        <mxCell id="Vm-noCwrMWK1309zvUUz-43" value="player new elo" style="edgeStyle=orthogonalEdgeStyle;rounded=0;orthogonalLoop=1;jettySize=auto;html=1;exitX=0.905;exitY=-0.006;exitDx=0;exitDy=0;entryX=0.867;entryY=1.033;entryDx=0;entryDy=0;entryPerimeter=0;exitPerimeter=0;" edge="1" parent="1" source="Vm-noCwrMWK1309zvUUz-4" target="Vm-noCwrMWK1309zvUUz-68">
          <mxGeometry x="-0.2136" y="10" relative="1" as="geometry">
            <mxPoint x="901" y="700" as="targetPoint" />
            <Array as="points">
              <mxPoint x="530" y="729" />
              <mxPoint x="530" y="700" />
              <mxPoint x="840" y="700" />
            </Array>
            <mxPoint as="offset" />
          </mxGeometry>
        </mxCell>
        <mxCell id="Vm-noCwrMWK1309zvUUz-44" value="system responce or request&amp;nbsp;" style="edgeStyle=orthogonalEdgeStyle;rounded=0;orthogonalLoop=1;jettySize=auto;html=1;exitX=0.25;exitY=0;exitDx=0;exitDy=0;entryX=0.316;entryY=1;entryDx=0;entryDy=0;entryPerimeter=0;" edge="1" parent="1" source="Vm-noCwrMWK1309zvUUz-3" target="Vm-noCwrMWK1309zvUUz-2">
          <mxGeometry relative="1" as="geometry" />
        </mxCell>
        <mxCell id="Vm-noCwrMWK1309zvUUz-49" value="check if user still loged in" style="edgeStyle=orthogonalEdgeStyle;rounded=0;orthogonalLoop=1;jettySize=auto;html=1;exitX=0.25;exitY=1;exitDx=0;exitDy=0;entryX=0.293;entryY=0.996;entryDx=0;entryDy=0;entryPerimeter=0;" edge="1" parent="1" source="Vm-noCwrMWK1309zvUUz-4" target="Vm-noCwrMWK1309zvUUz-68">
          <mxGeometry x="0.0005" relative="1" as="geometry">
            <mxPoint x="800" y="970" as="targetPoint" />
            <Array as="points">
              <mxPoint x="373" y="970" />
              <mxPoint x="780" y="970" />
              <mxPoint x="780" y="550" />
            </Array>
            <mxPoint as="offset" />
          </mxGeometry>
        </mxCell>
        <mxCell id="Vm-noCwrMWK1309zvUUz-50" value="load balancer" style="rounded=1;whiteSpace=wrap;html=1;" vertex="1" parent="1">
          <mxGeometry x="-200" y="580" width="120" height="60" as="geometry" />
        </mxCell>
        <mxCell id="Vm-noCwrMWK1309zvUUz-51" style="edgeStyle=orthogonalEdgeStyle;rounded=0;orthogonalLoop=1;jettySize=auto;html=1;exitX=0.5;exitY=1;exitDx=0;exitDy=0;entryX=0.138;entryY=0.019;entryDx=0;entryDy=0;entryPerimeter=0;" edge="1" parent="1" source="Vm-noCwrMWK1309zvUUz-50" target="Vm-noCwrMWK1309zvUUz-9">
          <mxGeometry relative="1" as="geometry" />
        </mxCell>
        <mxCell id="Vm-noCwrMWK1309zvUUz-54" style="edgeStyle=orthogonalEdgeStyle;rounded=0;orthogonalLoop=1;jettySize=auto;html=1;exitX=0.5;exitY=1;exitDx=0;exitDy=0;entryX=0.5;entryY=0;entryDx=0;entryDy=0;" edge="1" parent="1" source="Vm-noCwrMWK1309zvUUz-52" target="Vm-noCwrMWK1309zvUUz-8">
          <mxGeometry relative="1" as="geometry" />
        </mxCell>
        <mxCell id="Vm-noCwrMWK1309zvUUz-52" value="load balancer&amp;nbsp;" style="rounded=1;whiteSpace=wrap;html=1;" vertex="1" parent="1">
          <mxGeometry x="140" y="630" width="120" height="60" as="geometry" />
        </mxCell>
        <mxCell id="Vm-noCwrMWK1309zvUUz-58" value="" style="edgeStyle=orthogonalEdgeStyle;rounded=0;orthogonalLoop=1;jettySize=auto;html=1;exitX=0.75;exitY=1;exitDx=0;exitDy=0;entryX=0.562;entryY=-0.025;entryDx=0;entryDy=0;entryPerimeter=0;" edge="1" parent="1" source="Vm-noCwrMWK1309zvUUz-3" target="Vm-noCwrMWK1309zvUUz-57">
          <mxGeometry relative="1" as="geometry">
            <mxPoint x="548" y="500" as="sourcePoint" />
            <mxPoint x="438" y="726" as="targetPoint" />
          </mxGeometry>
        </mxCell>
        <mxCell id="Vm-noCwrMWK1309zvUUz-57" value="load balancer" style="rounded=1;whiteSpace=wrap;html=1;" vertex="1" parent="1">
          <mxGeometry x="480" y="520" width="120" height="80" as="geometry" />
        </mxCell>
        <mxCell id="Vm-noCwrMWK1309zvUUz-68" value="load balancer" style="rounded=1;whiteSpace=wrap;html=1;" vertex="1" parent="1">
          <mxGeometry x="710" y="460" width="150" height="90" as="geometry" />
        </mxCell>
        <mxCell id="Vm-noCwrMWK1309zvUUz-69" style="edgeStyle=orthogonalEdgeStyle;rounded=0;orthogonalLoop=1;jettySize=auto;html=1;exitX=1;exitY=0.5;exitDx=0;exitDy=0;entryX=0.342;entryY=0.041;entryDx=0;entryDy=0;entryPerimeter=0;" edge="1" parent="1" source="Vm-noCwrMWK1309zvUUz-3" target="Vm-noCwrMWK1309zvUUz-68">
          <mxGeometry relative="1" as="geometry">
            <Array as="points">
              <mxPoint x="670" y="395" />
              <mxPoint x="670" y="390" />
              <mxPoint x="761" y="390" />
            </Array>
          </mxGeometry>
        </mxCell>
        <mxCell id="Vm-noCwrMWK1309zvUUz-70" value="load balancer" style="rounded=1;whiteSpace=wrap;html=1;" vertex="1" parent="1">
          <mxGeometry x="1130" y="850" width="135" height="100" as="geometry" />
        </mxCell>
        <mxCell id="Vm-noCwrMWK1309zvUUz-72" style="edgeStyle=orthogonalEdgeStyle;rounded=0;orthogonalLoop=1;jettySize=auto;html=1;exitX=1;exitY=0.5;exitDx=0;exitDy=0;entryX=0.295;entryY=1.01;entryDx=0;entryDy=0;entryPerimeter=0;" edge="1" parent="1" source="Vm-noCwrMWK1309zvUUz-70" target="Vm-noCwrMWK1309zvUUz-11">
          <mxGeometry relative="1" as="geometry">
            <Array as="points">
              <mxPoint x="1332" y="900" />
            </Array>
          </mxGeometry>
        </mxCell>
        <mxCell id="Vm-noCwrMWK1309zvUUz-76" value="" style="edgeStyle=orthogonalEdgeStyle;rounded=0;orthogonalLoop=1;jettySize=auto;html=1;exitX=0;exitY=1;exitDx=0;exitDy=0;entryX=0.971;entryY=0.95;entryDx=0;entryDy=0;entryPerimeter=0;" edge="1" parent="1" source="Vm-noCwrMWK1309zvUUz-5" target="Vm-noCwrMWK1309zvUUz-75">
          <mxGeometry relative="1" as="geometry">
            <mxPoint x="820" y="880" as="sourcePoint" />
            <mxPoint x="715" y="825" as="targetPoint" />
            <Array as="points">
              <mxPoint x="780" y="910" />
              <mxPoint x="744" y="910" />
            </Array>
          </mxGeometry>
        </mxCell>
        <mxCell id="Vm-noCwrMWK1309zvUUz-75" value="load balancer" style="rounded=1;whiteSpace=wrap;html=1;" vertex="1" parent="1">
          <mxGeometry x="680" y="880" width="80" height="20" as="geometry" />
        </mxCell>
        <mxCell id="Vm-noCwrMWK1309zvUUz-86" value="backup" style="rounded=1;whiteSpace=wrap;html=1;" vertex="1" parent="1">
          <mxGeometry x="725" y="1520" width="120" height="60" as="geometry" />
        </mxCell>
        <mxCell id="Vm-noCwrMWK1309zvUUz-87" value="back up" style="rounded=1;whiteSpace=wrap;html=1;" vertex="1" parent="1">
          <mxGeometry x="670" y="1500" width="120" height="60" as="geometry" />
        </mxCell>
        <mxCell id="Vm-noCwrMWK1309zvUUz-88" style="edgeStyle=orthogonalEdgeStyle;rounded=0;orthogonalLoop=1;jettySize=auto;html=1;exitX=0;exitY=1;exitDx=0;exitDy=0;entryX=0.961;entryY=0.172;entryDx=0;entryDy=0;entryPerimeter=0;" edge="1" parent="1" source="Vm-noCwrMWK1309zvUUz-13" target="Vm-noCwrMWK1309zvUUz-87">
          <mxGeometry relative="1" as="geometry" />
        </mxCell>
        <mxCell id="Vm-noCwrMWK1309zvUUz-89" style="edgeStyle=orthogonalEdgeStyle;rounded=0;orthogonalLoop=1;jettySize=auto;html=1;exitX=0.5;exitY=0;exitDx=0;exitDy=0;" edge="1" parent="1" source="Vm-noCwrMWK1309zvUUz-87">
          <mxGeometry relative="1" as="geometry">
            <mxPoint x="1060" y="1240" as="targetPoint" />
            <Array as="points">
              <mxPoint x="730" y="1280" />
              <mxPoint x="1061" y="1280" />
              <mxPoint x="1061" y="1240" />
            </Array>
          </mxGeometry>
        </mxCell>
        <mxCell id="Vm-noCwrMWK1309zvUUz-90" value="user data" style="rounded=1;whiteSpace=wrap;html=1;" vertex="1" parent="1">
          <mxGeometry x="880" y="1345" width="170" height="110" as="geometry" />
        </mxCell>
        <mxCell id="Vm-noCwrMWK1309zvUUz-91" value="" style="rounded=1;whiteSpace=wrap;html=1;" vertex="1" parent="1">
          <mxGeometry x="1140" y="1140" width="210" height="160" as="geometry" />
        </mxCell>
        <mxCell id="Vm-noCwrMWK1309zvUUz-92" value="game data" style="rounded=1;whiteSpace=wrap;html=1;" vertex="1" parent="1">
          <mxGeometry x="1160" y="1120" width="210" height="160" as="geometry" />
        </mxCell>
      </root>
    </mxGraphModel>
  </diagram>
</mxfile>
